<svg xmlns="http://www.w3.org/2000/svg" xmlns:xlink="http://www.w3.org/1999/xlink" version="1.1" x="0px" y="10px" viewBox="0 0 24 30" style="enable-background:new 0 0 24 24;" xml:space="preserve"><g>
<path d="M23.633,8.585c-0.024-0.072-0.081-0.129-0.153-0.155c-0.114-0.04-2.478-0.868-6.049-0.806l1.405-0.462   c0.128-0.042,0.199-0.177,0.162-0.307l-0.213-0.738c-0.029-0.102-0.119-0.173-0.225-0.18L16.046,5.78l1.079-2.306   c0.028-0.061,0.031-0.13,0.008-0.193l-0.246-0.663c-0.033-0.088-0.112-0.151-0.206-0.162c-0.091-0.007-0.185,0.033-0.237,0.111   l-2.692,4.102l-0.271,0.109c-0.253-0.116-0.874-0.332-1.474,0.017c-0.6-0.358-1.232-0.135-1.488-0.017l-0.27-0.109L7.555,2.567   C7.504,2.489,7.411,2.443,7.32,2.456c-0.093,0.01-0.173,0.071-0.207,0.158L6.856,3.277C6.832,3.341,6.834,3.412,6.864,3.474   l1.084,2.306L5.44,5.938c-0.105,0.007-0.195,0.079-0.225,0.18L5.002,6.855C4.964,6.984,5.036,7.12,5.164,7.162L6.57,7.625   C2.998,7.565,0.627,8.39,0.511,8.43c-0.073,0.026-0.13,0.083-0.154,0.157L0.036,9.549C0.015,9.612,0.02,9.681,0.05,9.741   s0.083,0.105,0.146,0.125l7.42,2.387l0.24,2.411c0.01,0.108,0.09,0.197,0.196,0.22l0.25,0.054l0.706,1.124   c0.039,0.062,0.101,0.103,0.172,0.114l0.713,0.115c0.038,1.409,0.363,3.707,1.931,5.186c0.048,0.046,0.11,0.068,0.171,0.068   s0.123-0.022,0.171-0.067c1.575-1.479,1.898-3.777,1.934-5.186l0.718-0.115c0.07-0.012,0.134-0.053,0.172-0.114l0.705-1.123   l0.253-0.055c0.106-0.022,0.186-0.112,0.196-0.221l0.229-2.41l7.429-2.387C23.867,9.845,23.92,9.8,23.95,9.74   s0.034-0.129,0.013-0.193L23.633,8.585z M16.59,3.254l0.038,0.102l-2.252,4.812c-0.111-0.238-0.225-0.625-0.22-1.207L16.59,3.254z    M7.404,3.248l2.43,3.701C9.841,7.531,9.729,7.92,9.619,8.16L7.362,3.357L7.404,3.248z M0.792,8.865   c0.598-0.187,3.491-0.987,7.38-0.651l-0.526,3.524L0.59,9.467L0.792,8.865z M8.986,15.086l0.925,0.2   c-0.008,0.123-0.017,0.294-0.02,0.497L9.372,15.7L8.986,15.086z M11.997,20.942c-1.963-2.076-1.573-5.788-1.569-5.826   c0.014-0.128-0.07-0.245-0.196-0.272l-1.716-0.371c-0.002-0.001-0.004-0.001-0.006-0.001l-0.173-0.037l-0.235-2.362L8.705,8.02   c0.003-0.019-0.011-0.033-0.013-0.051C8.69,7.925,8.686,7.883,8.662,7.847C8.649,7.828,8.629,7.82,8.611,7.805   c-0.025-0.021-0.042-0.05-0.075-0.061L5.549,6.763l0.098-0.337l2.529-0.159l1.178,2.506c0.033,0.07,0.097,0.122,0.174,0.138   C9.545,8.914,9.562,8.916,9.58,8.916c0.059,0,0.117-0.021,0.163-0.06c0.023-0.02,0.523-0.462,0.585-1.616l0.108,0.044   c0.072,0.028,0.154,0.022,0.222-0.018c0.007-0.003,0.635-0.371,1.161,0.002c0.048,0.047,0.114,0.076,0.184,0.077   c0.001,0,0.001,0,0.001,0s0,0,0.001,0c0.05,0,0.1-0.015,0.143-0.044c0,0,0,0,0.001,0c0.003-0.002,0.006-0.004,0.009-0.007   c0.528-0.401,1.158-0.042,1.184-0.026c0.066,0.039,0.147,0.046,0.221,0.017l0.102-0.041c0.062,1.151,0.561,1.593,0.584,1.613   c0.12,0.101,0.332,0.058,0.398-0.084l1.172-2.506l2.536,0.159l0.098,0.337l-2.987,0.982c-0.032,0.01-0.049,0.039-0.073,0.06   c-0.018,0.015-0.039,0.023-0.052,0.043c-0.023,0.034-0.026,0.074-0.029,0.116c-0.002,0.02-0.017,0.035-0.014,0.056l0.594,4.05   l-0.224,2.364l-0.174,0.037c-0.002,0-0.004,0.001-0.006,0.001l-1.724,0.371c-0.126,0.026-0.21,0.145-0.195,0.272   C13.569,15.154,13.968,18.867,11.997,20.942z M14.628,15.7l-0.525,0.084c-0.004-0.204-0.013-0.375-0.021-0.498l0.932-0.201   L14.628,15.7z M16.345,11.737l-0.517-3.524c3.896-0.337,6.778,0.466,7.372,0.652l0.207,0.603L16.345,11.737z" stroke="white"/><path d="M12,11.931c-0.752,0-1.341,0.988-1.341,2.25s0.589,2.25,1.341,2.25s1.341-0.988,1.341-2.25S12.752,11.931,12,11.931z    M12,15.931c-0.397,0-0.841-0.719-0.841-1.75s0.443-1.75,0.841-1.75s0.841,0.719,0.841,1.75S12.397,15.931,12,15.931z"/></g><text x="0" y="39" fill="#000000" font-size="5px" font-weight="bold" font-family="'Helvetica Neue', Helvetica, Arial-Unicode, Arial, Sans-serif">Created by Atif Arshad</text><text x="0" y="44" fill="#000000" font-size="5px" font-weight="bold" font-family="'Helvetica Neue', Helvetica, Arial-Unicode, Arial, Sans-serif">from the Noun Project</text></svg>